<?xml version="1.0" encoding="UTF-8"?>
<!DOCTYPE svg PUBLIC "-//W3C//DTD SVG 1.1//EN" "http://www.w3.org/Graphics/SVG/1.1/DTD/svg11.dtd">
<svg version="1.2" xmlns="http://www.w3.org/2000/svg" xmlns:xlink="http://www.w3.org/1999/xlink" x="0mm" y="0mm" width="200mm" height="200mm" viewBox="0 0 200 200">
<style type="text/css"><![CDATA[
text { font:12px Dialog; }
]]></style>
<g transform="matrix(0.2 0.0 0.0 0.2 0.0 0.0) ">
<path d="M1000,500 C1000,223.8576251 776.1423749,0 500,0 C223.8576251,0 0,223.8576251 0,500 C0,776.1423749 223.8576251,1000 500,1000 C776.1423749,1000 1000,776.1423749 1000,500 L500,500 Z" style="fill:rgb(111,144,255);stroke:none" />
<path d="M970,499 C970,238.8738828 759.1261172,28 499,28 C238.8738828,28 28,238.8738828 28,499 C28,759.1261172 238.8738828,970 499,970 C759.1261172,970 970,759.1261172 970,499 L499,499 Z" style="fill:rgb(5,250,255);stroke:none" />
<path d="M940,499.5 C940,256.2185677 742.7814323,59 499.5,59 C256.2185677,59 59,256.2185677 59,499.5 C59,742.7814323 256.2185677,940 499.5,940 C742.7814323,940 940,742.7814323 940,499.5 L499.5,499.5 Z" style="fill:rgb(82,173,255);stroke:none" />
<path d="M907,499 C907,273.6678221 724.3321779,91 499,91 C273.6678221,91 91,273.6678221 91,499 C91,724.3321779 273.6678221,907 499,907 C724.3321779,907 907,724.3321779 907,499 L499,499 Z" style="fill:rgb(120,135,255);stroke:none" />
<path d="M872,499.5 C872,293.7739307 705.2260693,127 499.5,127 C293.7739307,127 127,293.7739307 127,499.5 C127,705.2260693 293.7739307,872 499.5,872 C705.2260693,872 872,705.2260693 872,499.5 L499.5,499.5 Z" style="fill:rgb(140,115,255);stroke:none" />
<path d="M832,499 C832,315.0891783 682.9108217,166 499,166 C315.0891783,166 166,315.0891783 166,499 C166,682.9108217 315.0891783,832 499,832 C682.9108217,832 832,682.9108217 832,499 L499,499 Z" style="fill:rgb(130,125,255);stroke:none" />
<path d="M788,499.5 C788,340.1658497 658.8341503,211 499.5,211 C340.1658497,211 211,340.1658497 211,499.5 C211,658.8341503 340.1658497,788 499.5,788 C658.8341503,788 788,658.8341503 788,499.5 L499.5,499.5 Z" style="fill:rgb(43,212,255);stroke:none" />
<path d="M735,499.5 C735,369.4369414 629.5630586,264 499.5,264 C369.4369414,264 264,369.4369414 264,499.5 C264,629.5630586 369.4369414,735 499.5,735 C629.5630586,735 735,629.5630586 735,499.5 L499.5,499.5 Z" style="fill:rgb(72,183,255);stroke:none" />
<path d="M666,499.5 C666,407.5445892 591.4554108,333 499.5,333 C407.5445892,333 333,407.5445892 333,499.5 C333,591.4554108 407.5445892,666 499.5,666 C591.4554108,666 666,591.4554108 666,499.5 L499.5,499.5 Z" style="fill:rgb(144,111,255);stroke:none" />
</g>
</svg>
